# xmcd
#
# Track frame offsets:
#	150
#	4274
#	27997
#	53664
#	80139
#	106188
#	137190
#	162361
#	187164
#	211490
#
# Disc length: 3164 seconds
#
# Revision: 1
# Processed by: cddbd v1.5.1PL0 Copyright (c) Steve Scherf et al.
# Submitted via: EasyCDDAExtractor 7.0.9.1
#
DISCID=8a0c5a0a
DTITLE=Five Feathers - Band in pocket #4
DYEAR=1900
DGENRE=Country
TTITLE0=Tune Up Notes
TTITLE1=Louisiana Line (d)
TTITLE2=Back Porch Breakdown (c)
TTITLE3=Just Blame Country (e)
TTITLE4=Dancin' At the VFW Hall (d)
TTITLE5=Too Much Candy for a Dime (a)
TTITLE6=On the Wing (e)
TTITLE7=Red Neck Rock (a)
TTITLE8=At the Country Club (g)
TTITLE9=What is That Light (d)
EXTD=
EXTT0=
EXTT1=
EXTT2=
EXTT3=
EXTT4=
EXTT5=
EXTT6=
EXTT7=
EXTT8=
EXTT9=
PLAYORDER=
